<svg version="1.1" xmlns="http://www.w3.org/2000/svg" xmlns:xlink="http://www.w3.org/1999/xlink">
  <symbol id="slider_button-left">
    <path fill-rule="evenodd" clip-rule="evenodd" d="M11.9318 0.119971C12.1139 0.199174 12.2794 0.315255 12.4187 0.461565C12.5583 0.607505 12.6691 0.780876 12.7446 0.971748C12.8202 1.16262 12.8591 1.36724 12.8591 1.57389C12.8591 1.78055 12.8202 1.98517 12.7446 2.17604C12.6691 2.36691 12.5583 2.54028 12.4187 2.68622L6.39097 9H23.5416C23.9659 9 24.3729 9.21071 24.673 9.58579C24.973 9.96086 25.1416 10.4696 25.1416 11C25.1416 11.5304 24.973 12.0391 24.673 12.4142C24.3729 12.7893 23.9659 13 23.5416 13H6.39018L12.4187 19.3146C12.7002 19.6096 12.8584 20.0097 12.8584 20.4269C12.8584 20.8441 12.7002 21.2443 12.4187 21.5393C12.1371 21.8343 11.7553 22 11.3571 22C10.959 22 10.5771 21.8343 10.2956 21.5393L1.29962 12.1127C1.15999 11.9668 1.04921 11.7934 0.973627 11.6026C0.898043 11.4117 0.859135 11.2071 0.859135 11.0004C0.859135 10.7938 0.898043 10.5891 0.973627 10.3983C1.04921 10.2074 1.15999 10.034 1.29962 9.88808L10.2956 0.461565C10.4349 0.315255 10.6003 0.199174 10.7825 0.119971C10.9646 0.0407677 11.1599 0 11.3571 0C11.5543 0 11.7496 0.0407677 11.9318 0.119971Z"/>
  </symbol>

  <symbol id="slider_button-right">
    <path fill-rule="evenodd" clip-rule="evenodd" d="M14.0682 0.119971C13.8861 0.199174 13.7206 0.315255 13.5813 0.461565C13.4417 0.607505 13.3309 0.780876 13.2554 0.971748C13.1798 1.16262 13.1409 1.36724 13.1409 1.57389C13.1409 1.78055 13.1798 1.98517 13.2554 2.17604C13.3309 2.36691 13.4417 2.54028 13.5813 2.68622L19.609 9H2.4584C2.03405 9 1.62709 9.21071 1.32703 9.58579C1.02697 9.96086 0.858398 10.4696 0.858398 11C0.858398 11.5304 1.02697 12.0391 1.32703 12.4142C1.62709 12.7893 2.03405 13 2.4584 13H19.6098L13.5813 19.3146C13.2998 19.6096 13.1416 20.0097 13.1416 20.4269C13.1416 20.8441 13.2998 21.2443 13.5813 21.5393C13.8629 21.8343 14.2447 22 14.6429 22C15.041 22 15.4229 21.8343 15.7044 21.5393L24.7004 12.1127C24.84 11.9668 24.9508 11.7934 25.0264 11.6026C25.102 11.4117 25.1409 11.2071 25.1409 11.0004C25.1409 10.7938 25.102 10.5891 25.0264 10.3983C24.9508 10.2074 24.84 10.034 24.7004 9.88808L15.7044 0.461565C15.5651 0.315255 15.3997 0.199174 15.2175 0.119971C15.0354 0.0407677 14.8401 0 14.6429 0C14.4457 0 14.2504 0.0407677 14.0682 0.119971Z"/>
  </symbol>

  <symbol id="pets_card-button">
    <path fill-rule="evenodd" clip-rule="evenodd" d="M15.3347 0.24596C15.1296 0.335165 14.9432 0.465905 14.7864 0.630691C14.6291 0.795061 14.5043 0.990325 14.4192 1.2053C14.3341 1.42027 14.2903 1.65074 14.2903 1.88349C14.2903 2.11623 14.3341 2.3467 14.4192 2.56167C14.5043 2.77665 14.6291 2.97191 14.7864 3.13628L21.5752 10.2474H2.25908C1.78115 10.2474 1.32279 10.4847 0.984839 10.9071C0.64689 11.3296 0.457031 11.9025 0.457031 12.4999C0.457031 13.0973 0.64689 13.6703 0.984839 14.0927C1.32279 14.5152 1.78115 14.7525 2.25908 14.7525H21.5761L14.7864 21.8645C14.4693 22.1967 14.2911 22.6474 14.2911 23.1173C14.2911 23.5872 14.4693 24.0378 14.7864 24.3701C15.1034 24.7023 15.5335 24.889 15.9819 24.889C16.4304 24.889 16.8604 24.7023 17.1775 24.3701L27.3095 13.7532C27.4668 13.5888 27.5915 13.3935 27.6767 13.1786C27.7618 12.9636 27.8056 12.7331 27.8056 12.5004C27.8056 12.2676 27.7618 12.0372 27.6767 11.8222C27.5915 11.6072 27.4668 11.412 27.3095 11.2476L17.1775 0.630691C17.0207 0.465905 16.8343 0.335165 16.6291 0.24596C16.424 0.156756 16.2041 0.11084 15.9819 0.11084C15.7598 0.11084 15.5399 0.156756 15.3347 0.24596Z"/>
  </symbol>
</svg>